<svg width="17" height="17" viewBox="0 0 17 17" fill="none" xmlns="http://www.w3.org/2000/svg">
<path d="M13.5958 0.159468C14.2441 0.158174 14.8664 0.414472 15.3257 0.871978C15.7851 1.32948 16.0438 1.95072 16.0451 2.59903L16.0673 13.7101C16.0686 14.3584 15.8123 14.9807 15.3548 15.44C14.8973 15.8994 14.2761 16.1581 13.6277 16.1594L2.51666 16.1816C1.86835 16.1829 1.24608 15.9266 0.786748 15.4691C0.327412 15.0116 0.0686324 14.3904 0.0673385 13.7421L0.045162 2.63096C0.0438681 1.98266 0.300166 1.36039 0.757672 0.901054C1.21518 0.441718 1.83642 0.182939 2.48472 0.181645L13.5958 0.159468ZM13.5985 1.4928L2.48738 1.51498C1.87405 1.5162 1.37727 2.01497 1.37849 2.6283L1.40067 13.7394C1.40189 14.3527 1.90066 14.8495 2.514 14.8483L13.6251 14.8261C14.2384 14.8249 14.7352 14.3261 14.734 13.7128L14.7118 2.60169C14.7106 1.98836 14.2118 1.49157 13.5985 1.4928ZM6.0589 8.61897C6.91757 8.61726 7.61585 9.31276 7.61756 10.1714L7.62111 11.9492C7.62193 12.3618 7.45883 12.7577 7.16769 13.05C6.87655 13.3424 6.48122 13.507 6.06866 13.5079L4.29089 13.5114C3.87833 13.5122 3.48234 13.3491 3.19004 13.058C2.89773 12.7668 2.73305 12.3715 2.73223 11.959L2.72868 10.1812C2.72697 9.32251 3.42158 8.62424 4.28113 8.62252L6.0589 8.61897ZM11.834 8.60745C12.6936 8.60573 13.3909 9.30123 13.3927 10.1599L13.3962 11.9377C13.397 12.3501 13.2341 12.7459 12.9431 13.0382C12.6522 13.3305 12.2571 13.4953 11.8446 13.4963L10.0669 13.4999C9.65432 13.5007 9.25833 13.3376 8.96602 13.0465C8.67372 12.7553 8.50904 12.36 8.50822 11.9474L8.50467 10.1696C8.50296 9.31098 9.19845 8.61271 10.0571 8.61099L11.8349 8.60744L11.834 8.60745ZM6.04648 2.84121C6.90515 2.83949 7.60343 3.53499 7.60514 4.39366L7.60869 6.17143C7.60951 6.58399 7.44641 6.97998 7.15527 7.27228C6.86413 7.56459 6.4688 7.72926 6.05624 7.73009L4.27847 7.73364C4.07411 7.73416 3.87166 7.69441 3.68267 7.61667C3.49369 7.53892 3.32187 7.4247 3.17704 7.28054C3.03221 7.13637 2.91721 6.96507 2.8386 6.77644C2.76 6.58781 2.71933 6.38554 2.71892 6.18119L2.71537 4.40342C2.71366 3.54475 3.40915 2.84647 4.26782 2.84476L6.04559 2.84121L6.04648 2.84121ZM11.8216 2.82968C12.6811 2.82797 13.3785 3.52346 13.3802 4.38213L13.3838 6.1599C13.3846 6.57246 13.2215 6.96845 12.9304 7.26075C12.6392 7.55306 12.2439 7.71774 11.8313 7.71856L10.0536 7.72211C9.64101 7.72293 9.24502 7.55983 8.95271 7.26869C8.66041 6.97755 8.49573 6.58222 8.49491 6.16966L8.49136 4.39189C8.48965 3.53322 9.18514 2.83494 10.0438 2.83323L11.8216 2.82968Z" fill="#B8B8B8"/>
<path d="M13.5958 0.159468C14.2441 0.158174 14.8664 0.414472 15.3257 0.871978C15.7851 1.32948 16.0438 1.95072 16.0451 2.59903L16.0673 13.7101C16.0686 14.3584 15.8123 14.9807 15.3548 15.44C14.8973 15.8994 14.2761 16.1581 13.6277 16.1594L2.51666 16.1816C1.86835 16.1829 1.24608 15.9266 0.786748 15.4691C0.327412 15.0116 0.0686324 14.3904 0.0673385 13.7421L0.045162 2.63096C0.0438681 1.98266 0.300166 1.36039 0.757672 0.901054C1.21518 0.441718 1.83642 0.182939 2.48472 0.181645L13.5958 0.159468ZM13.5985 1.4928L2.48738 1.51498C1.87405 1.5162 1.37727 2.01497 1.37849 2.6283L1.40067 13.7394C1.40189 14.3527 1.90066 14.8495 2.514 14.8483L13.6251 14.8261C14.2384 14.8249 14.7352 14.3261 14.734 13.7128L14.7118 2.60169C14.7106 1.98836 14.2118 1.49157 13.5985 1.4928ZM6.0589 8.61897C6.91757 8.61726 7.61585 9.31276 7.61756 10.1714L7.62111 11.9492C7.62193 12.3618 7.45883 12.7577 7.16769 13.05C6.87655 13.3424 6.48122 13.507 6.06866 13.5079L4.29089 13.5114C3.87833 13.5122 3.48234 13.3491 3.19004 13.058C2.89773 12.7668 2.73305 12.3715 2.73223 11.959L2.72868 10.1812C2.72697 9.32251 3.42158 8.62424 4.28113 8.62252L6.0589 8.61897ZM11.834 8.60745C12.6936 8.60573 13.3909 9.30123 13.3927 10.1599L13.3962 11.9377C13.397 12.3501 13.2341 12.7459 12.9431 13.0382C12.6522 13.3305 12.2571 13.4953 11.8446 13.4963L10.0669 13.4999C9.65432 13.5007 9.25833 13.3376 8.96602 13.0465C8.67372 12.7553 8.50904 12.36 8.50822 11.9474L8.50467 10.1696C8.50296 9.31098 9.19845 8.61271 10.0571 8.61099L11.8349 8.60744L11.834 8.60745ZM6.04648 2.84121C6.90515 2.83949 7.60343 3.53499 7.60514 4.39366L7.60869 6.17143C7.60951 6.58399 7.44641 6.97998 7.15527 7.27228C6.86413 7.56459 6.4688 7.72926 6.05624 7.73009L4.27847 7.73364C4.07411 7.73416 3.87166 7.69441 3.68267 7.61667C3.49369 7.53892 3.32187 7.4247 3.17704 7.28054C3.03221 7.13637 2.91721 6.96507 2.8386 6.77644C2.76 6.58781 2.71933 6.38554 2.71892 6.18119L2.71537 4.40342C2.71366 3.54475 3.40915 2.84647 4.26782 2.84476L6.04559 2.84121L6.04648 2.84121ZM11.8216 2.82968C12.6811 2.82797 13.3785 3.52346 13.3802 4.38213L13.3838 6.1599C13.3846 6.57246 13.2215 6.96845 12.9304 7.26075C12.6392 7.55306 12.2439 7.71774 11.8313 7.71856L10.0536 7.72211C9.64101 7.72293 9.24502 7.55983 8.95271 7.26869C8.66041 6.97755 8.49573 6.58222 8.49491 6.16966L8.49136 4.39189C8.48965 3.53322 9.18514 2.83494 10.0438 2.83323L11.8216 2.82968Z" fill="white"/>
</svg>
