<svg width="16" height="15" viewBox="0 0 16 15" fill="none" xmlns="http://www.w3.org/2000/svg">
<path d="M0 2.90146V11.6282C0 12.4317 0.334784 13.1459 0.870439 13.7038C1.40609 14.2395 2.09798 14.5296 2.90146 14.5296H7.27598V12.7218H2.90146C2.29885 12.7218 1.83015 12.2308 1.83015 11.6282V2.90146C1.83015 2.29885 2.29885 1.83015 2.90146 1.83015H7.27598V0H2.90146C2.09798 0 1.40609 0.312465 0.870439 0.84812C0.334784 1.40609 0 2.09798 0 2.90146ZM4.79857 5.5351V9.01686C4.79857 9.4186 5.15568 9.75338 5.55742 9.75338H9.59715V12.4986C9.59715 12.7441 9.73106 12.945 9.95425 13.0566C10.0435 13.0789 10.1328 13.0789 10.1774 13.0789C10.3337 13.0789 10.4676 13.0343 10.5792 12.9227L15.8241 7.67772C16.0696 7.47685 16.0473 7.07511 15.8241 6.85192L10.5792 1.62928C10.2667 1.2945 9.59715 1.49537 9.59715 2.03102V4.79857H5.55742C5.15568 4.79857 4.79857 5.13336 4.79857 5.5351Z" fill="#636363"/>
<path d="M0 2.90146V11.6282C0 12.4317 0.334784 13.1459 0.870439 13.7038C1.40609 14.2395 2.09798 14.5296 2.90146 14.5296H7.27598V12.7218H2.90146C2.29885 12.7218 1.83015 12.2308 1.83015 11.6282V2.90146C1.83015 2.29885 2.29885 1.83015 2.90146 1.83015H7.27598V0H2.90146C2.09798 0 1.40609 0.312465 0.870439 0.84812C0.334784 1.40609 0 2.09798 0 2.90146ZM4.79857 5.5351V9.01686C4.79857 9.4186 5.15568 9.75338 5.55742 9.75338H9.59715V12.4986C9.59715 12.7441 9.73106 12.945 9.95425 13.0566C10.0435 13.0789 10.1328 13.0789 10.1774 13.0789C10.3337 13.0789 10.4676 13.0343 10.5792 12.9227L15.8241 7.67772C16.0696 7.47685 16.0473 7.07511 15.8241 6.85192L10.5792 1.62928C10.2667 1.2945 9.59715 1.49537 9.59715 2.03102V4.79857H5.55742C5.15568 4.79857 4.79857 5.13336 4.79857 5.5351Z" fill="white"/>
</svg>
