<svg width="17" height="17" viewBox="0 0 17 17" fill="none" xmlns="http://www.w3.org/2000/svg">
<path d="M13.6569 3.47934L11.6054 0.762966L14.5389 0.157686L15.1274 3.16901L13.6569 3.47934ZM11.4624 3.92176L9.41096 1.21307L7.9405 1.51572L9.99942 4.22439L11.4624 3.92176V3.92176ZM13.1815 8.47549C14.0029 8.47385 14.765 8.70288 15.4229 9.0935L15.4171 6.16555L0.482534 6.19536L0.497872 13.8803C0.498686 14.2879 0.656812 14.6785 0.937464 14.9662C1.21812 15.2539 1.59831 15.4151 1.9944 15.4143L9.31979 15.3996C8.93761 14.7241 8.71203 13.9407 8.71034 13.0954C8.70527 10.5517 10.7098 8.48043 13.1815 8.47549ZM7.80494 4.68218L5.75346 1.95813L4.28304 2.27614L6.34195 4.98481L7.80494 4.68218V4.68218ZM2.08856 2.73393L1.35706 2.88141C0.969992 2.96345 0.630064 3.19945 0.411197 3.53807C0.192331 3.8767 0.112227 4.29058 0.188304 4.6897L0.482534 6.19536L4.14001 5.44262L2.08856 2.73393ZM13.9359 12.3165L13.9313 10.011L12.4378 10.014L12.4424 12.3194L10.2023 12.3239L10.2053 13.8609L12.4455 13.8564L12.4501 16.1619L13.9436 16.1589L13.939 13.8534L16.1792 13.849L16.1761 12.312L13.9359 12.3165Z" fill="#B8B8B8"/>
<path d="M13.6569 3.47934L11.6054 0.762966L14.5389 0.157686L15.1274 3.16901L13.6569 3.47934ZM11.4624 3.92176L9.41096 1.21307L7.9405 1.51572L9.99942 4.22439L11.4624 3.92176V3.92176ZM13.1815 8.47549C14.0029 8.47385 14.765 8.70288 15.4229 9.0935L15.4171 6.16555L0.482534 6.19536L0.497872 13.8803C0.498686 14.2879 0.656812 14.6785 0.937464 14.9662C1.21812 15.2539 1.59831 15.4151 1.9944 15.4143L9.31979 15.3996C8.93761 14.7241 8.71203 13.9407 8.71034 13.0954C8.70527 10.5517 10.7098 8.48043 13.1815 8.47549ZM7.80494 4.68218L5.75346 1.95813L4.28304 2.27614L6.34195 4.98481L7.80494 4.68218V4.68218ZM2.08856 2.73393L1.35706 2.88141C0.969992 2.96345 0.630064 3.19945 0.411197 3.53807C0.192331 3.8767 0.112227 4.29058 0.188304 4.6897L0.482534 6.19536L4.14001 5.44262L2.08856 2.73393ZM13.9359 12.3165L13.9313 10.011L12.4378 10.014L12.4424 12.3194L10.2023 12.3239L10.2053 13.8609L12.4455 13.8564L12.4501 16.1619L13.9436 16.1589L13.939 13.8534L16.1792 13.849L16.1761 12.312L13.9359 12.3165Z" fill="white"/>
</svg>
