<svg width="17" height="16" viewBox="0 0 17 16" fill="none" xmlns="http://www.w3.org/2000/svg">
<path d="M13.3109 10.4558L16.9382 4.08462L16.9603 15.1547L0.960358 15.1866L0.931308 0.631389L2.5313 0.628195L2.55154 10.7683L6.93614 3.04528L12.1422 6.0915L15.5224 0.157522L16.908 0.963383L12.7386 8.28978L7.52457 5.26783L2.80513 13.5657L4.61312 13.5621L8.11292 7.44187L13.3109 10.4558Z" fill="#B8B8B8"/>
<path d="M13.3109 10.4558L16.9382 4.08462L16.9603 15.1547L0.960358 15.1866L0.931308 0.631389L2.5313 0.628195L2.55154 10.7683L6.93614 3.04528L12.1422 6.0915L15.5224 0.157522L16.908 0.963383L12.7386 8.28978L7.52457 5.26783L2.80513 13.5657L4.61312 13.5621L8.11292 7.44187L13.3109 10.4558Z" fill="white"/>
</svg>
